<svg width="83" height="40" viewBox="0 0 83 40" fill="none" xmlns="http://www.w3.org/2000/svg">
<path d="M9.01446 27C5.25223 27 2.01149 25.6387 0 23.105L3.98573 18.3025C5.36398 20.1555 6.81672 21.063 8.53021 21.063C10.6535 21.063 11.8082 19.7395 11.8082 17.1681V5.7479H2.79374V0H19.0347V16.7521C19.0347 23.6345 15.5332 27 9.01446 27ZM35.4252 7.22269L27.8262 26.4706H20.3762L31.9237 0H39.0759L50.6233 26.4706H43.0616L35.4252 7.22269ZM59.4581 12.6681V26.4706H52.7531V0H58.7504L67.9511 15.3908L76.9655 0H82.9255L83 26.4706H76.295L76.2578 12.3277L69.4783 23.8613H66.2376L59.4581 12.6681Z" fill="white"/>
<path d="M10.2169 39.7692H2V28.2308H5.033V37.2143H10.2169V39.7692ZM13.3018 35.1209V32.7143H21.7663V35.1209H13.3018ZM13.3018 30.7363V28.2308H21.7663V30.7363H13.3018ZM13.3018 37.2637V39.7692H21.7663V37.2637H13.3018ZM30.4919 31.3791L27.3352 39.7692H24.2403L29.0373 28.2308H32.0084L36.8055 39.7692H33.6642L30.4919 31.3791ZM43.3231 40C41.5591 40 39.795 39.489 38.7735 38.7308L39.7795 36.3407C40.7389 37.033 42.1007 37.478 43.3541 37.478C44.6385 37.478 45.1337 37.0989 45.1337 36.522C45.1337 34.6758 38.9748 36.0275 38.9748 31.7253C38.9748 29.6813 40.5532 28 43.7564 28C45.1491 28 46.6037 28.3462 47.656 29.022L46.743 31.3956C45.7062 30.8022 44.6849 30.522 43.7255 30.522C42.4411 30.522 41.9614 30.9835 41.9614 31.5604C41.9614 33.3571 48.1202 32.0385 48.1202 36.2747C48.1202 38.2857 46.5418 40 43.3231 40ZM54.4411 39.7692H51.4082V28.2308H54.4411V39.7692ZM61.465 33.5549V39.7692H58.4939V28.2308H60.9853L65.8133 34.4451V28.2308H68.7689V39.7692H66.2775L61.465 33.5549ZM82.7524 33.7527V38.533C81.5145 39.489 79.7968 40 78.2184 40C74.7831 40 72.2607 37.511 72.2607 34C72.2607 30.489 74.7831 28 78.2803 28C80.292 28 81.9323 28.7418 83 30.0934L81.0812 31.956C80.3384 31.0824 79.4718 30.6703 78.435 30.6703C76.5626 30.6703 75.3092 31.989 75.3092 34C75.3092 35.9615 76.5626 37.3297 78.4041 37.3297C78.9766 37.3297 79.5183 37.2308 80.0753 36.9506V33.7527H82.7524Z" fill="white"/>
</svg>
