<svg width="158" height="158" viewBox="0 0 158 158" fill="none" xmlns="http://www.w3.org/2000/svg">
<path d="M111.863 83.233H106.352C106.725 82.2535 107.604 79.8839 108.988 76.1243L109.107 75.7667C109.214 75.5019 109.347 75.1577 109.507 74.7341C109.666 74.3107 109.786 73.9665 109.866 73.7016L110.346 75.8858L111.863 83.233ZM54.2032 80.6517L51.8871 68.9362C51.5943 67.5065 50.596 66.7916 48.8924 66.7916H38.191L38.1111 67.3079C46.39 69.3994 51.7541 73.8474 54.2032 80.6517ZM61.3507 66.7916L54.882 84.1862L54.2032 80.6517C53.511 78.7984 52.38 77.0841 50.8094 75.5088C49.2388 73.9335 47.4951 72.7619 45.5785 71.9941L50.9691 92.248H57.9569L68.3788 66.7916H61.3507ZM66.9011 92.2877H73.5295L77.6823 66.7916H71.0538L66.9011 92.2877ZM97.5677 67.4271C95.7309 66.7122 93.7477 66.3548 91.618 66.3548C88.3437 66.3548 85.6684 67.1358 83.592 68.6979C81.5156 70.26 80.4641 72.2854 80.4375 74.7741C80.4119 77.4746 82.3419 79.778 86.2274 81.6843C87.5052 82.2932 88.397 82.8359 88.9028 83.3125C89.4088 83.7888 89.6618 84.3051 89.6618 84.8614C89.6618 85.6556 89.2625 86.2645 88.464 86.6882C87.6653 87.1116 86.7469 87.3233 85.7087 87.3233C83.4193 87.3233 81.343 86.8865 79.4795 86.0128L78.6011 85.5759L77.6826 91.2947C79.6526 92.1948 82.115 92.6449 85.0699 92.6449C88.5305 92.6703 91.3056 91.8893 93.3953 90.3018C95.485 88.7133 96.5565 86.5952 96.6098 83.9476C96.6098 81.1412 94.7464 78.8378 91.0195 77.0374C89.7151 76.3756 88.7701 75.8196 88.1844 75.3695C87.5988 74.9196 87.3059 74.4166 87.3059 73.8604C87.3059 73.2779 87.632 72.7682 88.2843 72.3314C88.9364 71.8948 89.8748 71.6764 91.0994 71.6764C92.9628 71.651 94.6132 71.9687 96.0507 72.6296L96.6495 72.9475L97.5677 67.4271ZM114.538 66.7919H109.427C107.697 66.7919 106.539 67.5068 105.953 68.9365L96.1302 92.288H103.078L104.476 88.4755H112.941C113.074 89.058 113.34 90.3289 113.74 92.288H119.889L114.538 66.7919ZM125 54.0834V104.917C125 106.293 124.494 107.485 123.483 108.491C122.471 109.497 121.273 110 119.889 110H38.1111C36.7269 110 35.5289 109.497 34.5174 108.491C33.5058 107.485 33 106.293 33 104.917V54.0834C33 52.7066 33.5058 51.5152 34.5174 50.5091C35.5289 49.503 36.7269 49 38.1111 49H119.889C121.273 49 122.471 49.503 123.483 50.5091C124.494 51.5152 125 52.7066 125 54.0834Z" fill="#0066ff"/>
<path d="M154 79C154 120.422 120.422 154 79 154C37.5787 154 4 120.422 4 79C4 37.5787 37.5787 4 79 4C120.422 4 154 37.5787 154 79Z" stroke="#0066ff" stroke-width="7" stroke-linecap="round" stroke-linejoin="round"/>
</svg>
