<svg width="158" height="158" viewBox="0 0 158 158" fill="none" xmlns="http://www.w3.org/2000/svg">
<path fill-rule="evenodd" clip-rule="evenodd" d="M68.4764 49.1555C63.4296 49.576 58.0878 50.5944 55.43 51.6426C54.2252 52.1178 54.1267 52.2111 52.899 54.0374C51.4717 56.1614 49.1696 60.4415 48.1638 62.8416C47.8 63.7095 47.4712 64.2685 47.4333 64.0837C47.3603 63.7301 47.1622 63.6452 45.9316 63.4401L45.1733 63.3137L45.6318 62.9472C46.018 62.6385 46.0905 62.3933 46.0905 61.3956C46.0905 60.4275 46.0056 60.1214 45.6268 59.7235C45.3718 59.4555 44.9133 59.187 44.608 59.1268C43.1953 58.8479 39.1515 60.2478 38.4895 61.2447C37.7228 62.3994 38.7609 63.9533 40.7257 64.5918C41.2577 64.7648 42.5477 65.082 43.5921 65.2964C44.6364 65.511 45.7753 65.7702 46.1231 65.8726C46.5154 65.9882 48.8937 65.9929 52.3957 65.885C55.4982 65.7893 58.0952 65.7467 58.1669 65.7905C58.2385 65.8343 59.868 65.7844 61.7878 65.6799L65.2784 65.4895L65.9244 66.2162C66.6792 67.0652 68.2826 70.103 69.0769 72.1889L69.6319 73.6464L72.0522 73.515C75.1568 73.3466 81.905 73.3458 84.158 73.5136C85.5467 73.6172 85.9259 73.588 86.0166 73.3712C87.0911 70.8074 88.52 67.7751 89.1758 66.6669C90.0063 65.2639 90.0075 65.2629 90.7344 65.386C91.1346 65.4538 94.4751 65.5931 98.1578 65.6958C101.84 65.7984 105.803 65.9369 106.962 66.0034C108.597 66.0973 109.249 66.0572 109.861 65.8258C110.295 65.6615 111.414 65.3795 112.349 65.199C116.147 64.4654 117.946 63.6014 118.415 62.2868C118.803 61.1958 116.78 59.85 113.872 59.2647C111.787 58.8452 110.862 59.0775 110.415 60.1326C110.051 60.9918 110.176 62.0193 110.735 62.7653L111.131 63.2935L110.69 63.4101C110.448 63.4742 109.919 63.5279 109.515 63.5293C108.983 63.5312 108.757 63.6273 108.694 63.8772C108.63 64.1311 108.54 64.0486 108.354 63.565C107.5 61.3477 104.834 56.5076 103.011 53.8644C102.027 52.4389 101.693 52.1122 100.764 51.6655C99.1905 50.909 95.828 50.1571 90.6625 49.4066C88.0629 49.0288 72.1561 48.8489 68.4764 49.1555ZM66.1253 51.114C61.8228 51.4828 55.825 52.5286 54.7477 53.0975C54.1069 53.436 48.7273 64.5234 49.0496 64.8414C49.0874 64.8786 50.011 64.8236 51.1022 64.7189C52.1933 64.6141 53.7329 64.5262 54.5234 64.5234C56.4528 64.5165 56.5557 64.1918 54.6835 64.0186C53.8566 63.9421 53.1365 63.8097 53.0831 63.7245C52.9898 63.5754 55.5739 58.3438 56.7226 56.3567L57.2787 55.3947L56.3898 54.639C55.9009 54.2236 55.5422 53.8467 55.5927 53.8017C56.5919 52.9097 61.4301 52.0892 68.152 51.6716C72.2197 51.4189 87.8842 51.5645 91.1622 51.8854C96.3019 52.3886 100.157 53.1944 100.157 53.7654C100.157 53.9204 99.8417 54.295 99.457 54.598C99.0722 54.901 98.7574 55.2935 98.7574 55.4702C98.7574 55.647 99.0608 56.2888 99.4318 56.8967C100.668 58.9235 102.805 63.2922 102.667 63.5121C102.593 63.6316 102.363 63.7293 102.156 63.7293C101.95 63.7293 101.528 63.8243 101.219 63.9403C100.331 64.2737 100.937 64.4378 104.054 64.7078C105.593 64.8412 106.919 64.9913 107.002 65.0418C107.527 65.3617 106.76 63.5744 103.952 57.9321C102.751 55.5191 101.605 53.3991 101.406 53.221C101.04 52.8947 98.8499 52.3328 96.259 51.9004C91.4716 51.1015 90.6081 51.0558 79.2696 51.0007C73.1135 50.971 67.1986 51.0218 66.1253 51.114ZM70.0754 55.4533C68.8662 55.5294 67.7645 55.6032 67.627 55.617C67.2274 55.657 67.3387 56.3924 67.7645 56.5257C68.5222 56.7632 69.3543 57.9502 69.4946 58.9943L69.6273 59.9815H77.8963H86.1653V59.084C86.1653 57.884 86.607 57.1104 87.5686 56.6261C89.1868 55.8115 88.3593 55.489 84.4664 55.4172L82.6675 55.3838L82.6045 56.0099C82.5662 56.392 82.3679 56.7484 82.0957 56.9243C81.4083 57.3688 78.6868 57.6707 76.4714 57.5486C73.5173 57.3857 72.7737 57.0247 72.7737 55.7537C72.7737 55.4623 72.6676 55.2617 72.5239 55.2811C72.3866 55.2996 71.2847 55.3771 70.0754 55.4533ZM38.995 61.7294C38.995 61.9607 39.0937 61.9907 41.3565 62.4477C43.2601 62.8322 43.659 62.8203 44.0746 62.3673C44.4052 62.0069 44.3962 61.987 43.8557 61.8832C42.5234 61.6272 38.995 61.5155 38.995 61.7294ZM112.799 61.7039C111.854 61.7879 111.766 61.9268 112.337 62.4367C112.653 62.7186 112.923 62.7578 113.786 62.6474C115.418 62.4383 117.528 61.9442 117.655 61.7414C117.765 61.5654 114.629 61.5414 112.799 61.7039ZM75.1223 62.8801C72.0646 62.9438 71.2369 63.089 72.0906 63.4123C72.6738 63.6332 83.7332 63.5482 83.8749 63.3216C83.9475 63.206 83.9753 63.0821 83.9367 63.0464C83.7948 62.915 78.3682 62.8126 75.1223 62.8801ZM88.4639 63.492L87.4645 63.8188L90.4626 63.9457C92.1116 64.0153 94.2125 64.2222 95.1313 64.4056C96.0499 64.5889 96.8432 64.6978 96.894 64.6479C97.0261 64.5173 94.9006 63.7577 93.4743 63.4257C91.8833 63.0553 89.7105 63.0841 88.4639 63.492ZM74.8224 64.8514C75.0149 64.9011 75.3295 64.9011 75.522 64.8514C75.7145 64.8019 75.557 64.7613 75.1722 64.7613C74.7875 64.7613 74.63 64.8019 74.8224 64.8514ZM79.2095 64.8623C80.1659 64.8984 81.7849 64.8986 82.8072 64.8627C83.8298 64.8268 83.0473 64.7972 81.0685 64.797C79.0898 64.7968 78.2533 64.8262 79.2095 64.8623ZM44.8913 66.6123C41.9973 67.1265 38.3776 69.2398 35.8222 71.907L34.748 73.0282L34.8922 75.2331C34.9713 76.446 35.1296 77.9263 35.2437 78.523C35.5477 80.113 35.5104 80.3754 34.6251 82.8625C32.1209 89.8974 32.4937 98.7446 35.497 103.552L36.34 104.901L34.8392 105.026C34.0135 105.095 32.8121 105.152 32.1691 105.152C31.5261 105.152 31 105.224 31 105.313C31 105.642 41.5989 106.774 55.3847 107.917C58.078 108.14 62.1254 108.499 64.379 108.715C79.2461 110.136 78.8475 110.111 82.3677 109.884C88.941 109.46 115.913 106.949 121.643 106.226C122.962 106.06 124.536 105.811 125.141 105.672C126.163 105.438 126.198 105.411 125.64 105.297C125.311 105.229 123.804 105.115 122.292 105.044L119.543 104.914L120.145 104.164C120.982 103.121 121.858 101.198 122.347 99.3328C122.981 96.9116 123.268 92.82 122.989 90.1878C122.683 87.2935 121.867 83.7438 121.031 81.6642C120.468 80.2629 120.383 79.8641 120.536 79.3386C120.637 78.9897 120.783 77.4322 120.859 75.8775L120.999 73.0505L120.128 72.1177C118.884 70.7863 115.49 68.3155 113.848 67.5464C112.18 66.7651 110.846 66.4908 108.715 66.4908H107.134L107.26 67.1549C107.385 67.8084 107.35 67.8473 105.121 69.5694C102.856 71.3192 96.5588 77.3212 96.5588 77.7302C96.5588 77.8496 97.121 78.7465 97.808 79.7235L99.0572 81.4999L101.506 81.3685C104.649 81.1997 104.789 81.5425 101.706 81.8579C100.469 81.9843 98.9972 82.1376 98.4356 82.1985L97.4142 82.3092L96.7948 81.0032C95.8838 79.0816 94.3901 77.6835 92.697 77.1675C90.0377 76.357 88.3711 76.2544 77.8705 76.2566C69.429 76.2582 67.497 76.312 65.4313 76.6034C61.1261 77.2107 59.6086 78.1052 58.2367 80.8446L57.4971 82.3214L55.9925 82.196C52.5714 81.9106 50.9874 81.6372 50.9874 81.332C50.9874 81.1009 51.1515 81.0628 51.7444 81.1563C52.1609 81.222 53.2694 81.334 54.208 81.4052L55.9145 81.5346L56.7734 80.1767C57.2457 79.4299 57.8629 78.5747 58.1447 78.2764L58.6574 77.734L58.1617 77.1916C55.0958 73.8359 51.7214 70.473 50.13 69.187C48.9221 68.2108 48.2144 67.5054 48.2811 67.3441C48.3405 67.2003 48.4436 66.9494 48.5104 66.7866C48.6037 66.5588 48.4772 66.4902 47.9607 66.488C47.5918 66.4866 47.1099 66.4499 46.89 66.4067C46.6701 66.3633 45.7707 66.4558 44.8913 66.6123ZM51.1947 66.4566C50.7054 66.6028 50.7072 66.6073 51.4945 67.1766C53.8944 68.9124 54.5636 69.4925 57.022 71.969C60.4813 75.4534 60.263 75.2867 60.7461 74.81C61.1347 74.4265 61.1345 74.4161 60.6935 73.3454C59.9114 71.4463 58.8833 69.9454 57.0968 68.095L55.8844 66.8389L56.9837 66.9778C59.1807 67.2551 60.9811 67.3946 60.9811 67.2873C60.9811 67.2269 60.239 67.0085 59.3322 66.8018C57.5887 66.4046 52.1423 66.1736 51.1947 66.4566ZM69.4258 66.4328C68.9224 66.5284 68.8636 66.6953 69.212 67.0391C69.3931 67.2178 69.3871 67.3837 69.1858 67.7547C69.0419 68.0202 68.9701 68.4437 69.0263 68.6956C69.222 69.5704 70.1608 72.854 70.2369 72.9292C70.3401 73.031 76.1448 72.7065 76.2156 72.5949C76.2463 72.5465 76.2427 71.1088 76.2076 69.4002L76.1434 66.2935L73.0096 66.3203C71.2859 66.3351 69.6733 66.3856 69.4258 66.4328ZM78.77 69.2383C78.77 71.5297 78.8333 72.2455 79.056 72.4651C79.2678 72.6741 80.1113 72.7742 82.3039 72.8503C83.9331 72.9067 85.2955 72.927 85.3314 72.8955C85.3674 72.8637 85.703 71.7897 86.077 70.5085C86.5215 68.9868 86.6892 68.1124 86.5613 67.9861C86.3052 67.7334 86.308 67.0825 86.5651 67.0825C86.675 67.0825 86.7649 66.961 86.7649 66.8125C86.7649 66.4162 85.681 66.2981 82.0179 66.2957L78.77 66.2935V69.2383ZM98.9573 66.4229C97.1048 66.5983 93.7461 67.1433 93.6588 67.2827C93.6048 67.3689 93.8978 67.4044 94.3102 67.3618C97.5921 67.0216 99.2329 66.8941 99.313 66.9734C99.365 67.0245 98.8789 67.6372 98.2329 68.3347C96.8996 69.7744 95.4681 72.0319 94.9628 73.4916C94.6432 74.4147 94.6426 74.5019 94.9548 74.8224C95.2706 75.1467 95.3423 75.1196 96.2736 74.3235C96.8152 73.8606 98.3377 72.4185 99.6568 71.119C100.976 69.8194 102.707 68.3333 103.504 67.8165C104.302 67.2997 104.953 66.8004 104.953 66.7068C104.953 66.6133 104.751 66.4833 104.504 66.4178C104.049 66.2975 100.245 66.301 98.9573 66.4229ZM42.6103 67.8849C40.3681 69.0911 39.1367 69.9495 38.1395 71.0015C37.2723 71.9165 37.2299 72.0177 37.0882 73.5095C36.9305 75.1701 37.0738 80.1775 37.2946 80.7277C37.4803 81.19 38.7827 81.7411 40.8938 82.2508C43.9155 82.9804 44.1917 83.0674 44.1917 83.2901C44.1917 83.6065 41.2867 83.3152 39.1567 82.7852L37.396 82.3473V82.9747C37.396 83.3197 37.4521 83.8795 37.5209 84.2186C37.6252 84.7338 37.7382 84.835 38.2087 84.835C38.5183 84.835 38.8217 84.7549 38.8828 84.6571C38.9442 84.5594 39.281 84.3807 39.6316 84.26L40.2688 84.0409L39.7977 84.5358C39.5384 84.808 39.3779 85.0814 39.4409 85.1435C39.5454 85.2468 42.9791 85.8078 49.6882 86.8177C52.3846 87.2237 54.1974 87.5436 54.885 87.735C55.2683 87.8417 55.2705 87.8304 54.9349 87.4592C54.5294 87.0106 54.4718 86.111 54.8342 85.8899C55.1838 85.6766 57.4748 85.7701 60.1816 86.1082C61.4459 86.266 65.7631 86.7219 69.7756 87.1211C78.1328 87.9527 76.5735 87.9912 89.863 86.6278C99.3104 85.6587 100.123 85.6133 100.756 86.0195C101.005 86.179 100.929 86.3311 100.306 86.9164C99.5113 87.6641 99.4028 87.8338 99.8067 87.6965C100.231 87.5521 106.418 86.6507 111.281 86.0244C116.203 85.3906 116.622 85.3046 116.477 84.9575C116.06 83.9574 116.043 83.9697 117.027 84.5389C117.57 84.8529 118.045 85.0109 118.145 84.9107C118.24 84.8149 118.38 84.1815 118.457 83.5034L118.597 82.2701L117.795 82.5493C117.354 82.7027 116.331 82.9217 115.521 83.0359C111.598 83.5886 111.292 83.2085 114.907 82.2725C117.573 81.5823 118.294 81.2409 118.574 80.5353C118.852 79.8373 118.668 72.9316 118.348 72.0737C117.981 71.0857 115.022 68.8096 112.407 67.503C111.326 66.9632 111.021 66.9732 110.873 67.5535C110.807 67.8127 110.078 69.0315 109.253 70.262C107.52 72.8444 107.424 73.0951 108.361 72.6006C108.969 72.2793 113.99 71.0557 114.268 71.161C115.034 71.4514 115.396 75.9037 114.886 78.7812C114.52 80.8476 114.203 81.391 113.2 81.6748C112.489 81.8762 107.971 82.5968 100.168 83.7533C98.2505 84.0375 96.5178 84.3567 96.3171 84.4626C96.1166 84.5683 93.9978 84.8656 91.6087 85.1228C89.2194 85.3802 85.0514 85.8279 82.3465 86.1181L77.4282 86.6457L71.6532 86.026C63.6665 85.1689 60.02 84.703 57.6832 84.2411C56.5839 84.0239 53.6971 83.5769 51.2683 83.2477C46.7263 82.6325 43.2251 81.9451 41.9461 81.4176C41.3259 81.162 41.173 80.9677 40.9136 80.1051C40.4898 78.6972 40.3109 75.0129 40.5704 73.0369C40.6889 72.1351 40.8304 71.3258 40.8852 71.2386C41.0285 71.0098 42.7418 71.354 45.3618 72.1376C46.6146 72.5124 47.7223 72.7919 47.823 72.7588C47.9238 72.7256 47.2382 71.5459 46.2994 70.1371C45.3606 68.7284 44.5923 67.4648 44.5919 67.3291C44.5911 66.9267 44.1743 67.0437 42.6103 67.8849ZM43.2323 72.645C42.8997 72.9732 42.9299 73.5052 43.3958 75.5072C43.9095 77.716 44.1387 78.2989 44.7534 78.9593C45.331 79.5799 45.5678 79.6347 52.2866 80.7024C53.8061 80.9438 55.1118 80.9186 55.3421 80.6434C55.503 80.4509 55.2549 80.3911 54.2086 80.3708C53.4719 80.3564 51.9284 80.1617 50.779 79.9379C49.6295 79.7142 48.1042 79.44 47.3897 79.3288C45.3504 79.011 44.7168 78.077 44.5499 75.1433L44.4755 73.835L45.1831 74.1514C45.5722 74.3253 45.9222 74.4867 45.961 74.5101C45.9998 74.5334 45.8872 74.7555 45.7111 75.0037C45.0574 75.9248 45.5247 77.6833 46.5646 78.2141C47.4265 78.654 48.2769 78.5991 48.9083 78.0632C49.3475 77.6906 49.4676 77.3922 49.5439 76.4852C49.6033 75.7771 49.7286 75.367 49.8855 75.367C50.1833 75.367 54.5962 77.5263 55.5845 78.1555L56.2841 78.6011L55.9019 78.166C54.8436 76.9612 50.1552 74.4208 46.8964 73.2866C44.2471 72.3647 43.6265 72.256 43.2323 72.645ZM109.014 73.0813C106.132 74.1216 98.5575 77.9113 98.5575 78.3129C98.5575 78.4072 100.064 77.7938 101.905 76.9501C106.291 74.9405 106.078 74.9946 105.999 75.9102C105.874 77.3689 107.442 78.7875 108.72 78.3701C109.834 78.0062 110.505 76.1931 109.923 75.12C109.728 74.7595 109.776 74.6388 110.273 74.2462C111.027 73.6511 111.422 73.6456 111.236 74.2328C111.159 74.477 110.995 74.7419 110.873 74.8216C110.716 74.9234 110.724 74.9674 110.9 74.9695C111.253 74.9737 111.211 75.5232 110.745 77.0123C110.268 78.5354 109.726 79.0424 108.387 79.2161C107.873 79.2828 106.026 79.598 104.283 79.9164C100.802 80.5523 99.9568 80.614 99.5969 80.2588C99.4406 80.1045 99.357 80.0963 99.357 80.2347C99.357 81.0257 100.812 81.0454 104.953 80.3111C106.108 80.1065 107.727 79.8304 108.551 79.6976C109.85 79.4885 110.146 79.3611 110.766 78.7431C111.355 78.1561 111.579 77.6784 112.029 76.044C112.332 74.9476 112.549 73.7109 112.513 73.2825C112.451 72.5284 112.427 72.5057 111.649 72.4627C111.145 72.4349 110.173 72.6629 109.014 73.0813ZM76.8212 74.3869C76.2483 74.6141 76.2561 74.7553 76.8791 75.4183C77.4564 76.0327 77.8863 76.0937 78.5255 75.6516C79.7284 74.8204 78.335 73.7864 76.8212 74.3869ZM76.8596 74.7567C76.9211 74.8549 77.1514 74.8891 77.371 74.8323C77.9211 74.6904 77.8715 74.578 77.2591 74.578C76.9779 74.578 76.798 74.6585 76.8596 74.7567ZM106.798 75.0179C105.613 75.5812 106.204 77.6888 107.647 78.0462C109.331 78.4634 110.53 76.5067 109.349 75.2668C108.835 74.7269 107.653 74.6115 106.798 75.0179ZM46.0254 75.4289C44.5799 76.9476 47.3999 79.1224 48.8977 77.6443C49.2547 77.2922 49.3884 76.9458 49.3884 76.3734C49.3884 75.3546 48.868 74.9725 47.48 74.9725C46.6721 74.9725 46.3695 75.0676 46.0254 75.4289ZM43.8837 87.0179C43.6738 87.3529 43.8767 87.4298 45.4283 87.6044C46.9604 87.7766 50.02 88.245 54.6305 89.0133L57.374 89.4704L57.5913 90.5552C57.7108 91.1519 57.9461 92.1255 58.1139 92.7189C58.3108 93.414 58.3468 93.8217 58.2151 93.8651C57.8515 93.9846 55.3847 95.8893 55.3847 96.0504C55.3847 96.1364 55.5869 96.3938 55.8344 96.6222C57.1316 97.8211 61.5322 98.7738 67.8768 99.2293C75.581 99.7826 77.3333 99.8169 83.0287 99.5256C89.6267 99.1883 91.6075 98.9855 94.8598 98.3146C97.4728 97.7756 98.9275 97.2475 99.4909 96.6329C99.8447 96.2471 99.8347 96.2232 99.0596 95.6155C98.6231 95.2734 98.0111 94.7714 97.6999 94.5002L97.1336 94.0071L97.6457 92.0624C97.9273 90.9927 98.1578 89.9497 98.1578 89.7447C98.1578 89.5396 98.2073 89.3717 98.2679 89.3717C98.3285 89.3717 100.195 89.0674 102.415 88.6956C104.636 88.3235 107.688 87.8596 109.198 87.6645C111.552 87.3606 111.904 87.2704 111.664 87.0337C111.317 86.6907 108.942 87.0014 101.977 88.3017C99.4058 88.7818 97.2409 89.1745 97.1662 89.1745C97.0916 89.1745 96.9147 89.8779 96.7732 90.7375C96.5644 92.007 95.9418 93.8254 95.0293 95.8309C94.9604 95.9828 95.2502 96.2244 95.7881 96.4633L96.6587 96.8499L95.8302 96.738C95.2442 96.6589 94.6612 96.7518 93.8383 97.0558C90.4624 98.3022 84.9928 98.9147 77.2709 98.9109C70.7432 98.9076 64.1212 98.1868 61.1662 97.158C60.7069 96.998 60.0054 96.8629 59.6068 96.8578L58.8825 96.8483L59.582 96.5001C60.3607 96.1127 60.3617 96.0918 59.6752 94.3797C59.4093 93.7169 59.0466 92.3411 58.8689 91.3223C58.6912 90.3037 58.5309 89.4548 58.5125 89.4358C58.4943 89.4167 57.5807 89.2171 56.4822 88.9922C55.3839 88.7672 53.8556 88.4456 53.0861 88.2776C51.1803 87.8612 44.9946 86.8079 44.4533 86.8077C44.2125 86.8075 43.9561 86.9022 43.8837 87.0179ZM37.4118 87.317C37.4214 87.5468 37.4687 87.5935 37.5325 87.4363C37.5903 87.2939 37.5831 87.1237 37.5167 87.0582C37.4503 86.9927 37.4032 87.1091 37.4118 87.317ZM118.192 87.7937C118.192 88.1734 118.233 88.3287 118.283 88.1389C118.333 87.9492 118.333 87.6383 118.283 87.4485C118.233 87.2588 118.192 87.414 118.192 87.7937ZM37.6462 88.6814C37.6484 89.1153 37.6894 89.2696 37.7372 89.0242C37.7849 88.7788 37.7831 88.4237 37.7332 88.2352C37.6832 88.0466 37.644 88.2474 37.6462 88.6814ZM115.962 88.6977C115.972 88.9275 116.019 88.9743 116.083 88.8171C116.141 88.6746 116.134 88.5044 116.067 88.4389C116.001 88.3734 115.954 88.4898 115.962 88.6977ZM39.826 88.9772C39.826 89.2484 39.8714 89.3595 39.9268 89.2238C39.9824 89.0883 39.9824 88.8664 39.9268 88.7307C39.8714 88.5952 39.826 88.706 39.826 88.9772ZM118 89.7662C118 90.2544 118.039 90.4542 118.086 90.21C118.134 89.9658 118.134 89.5666 118.086 89.3224C118.039 89.0782 118 89.278 118 89.7662ZM115.507 90.6239C114.843 93.1222 113.967 95.0287 112.99 96.1011C112.424 96.7215 112.228 97.0369 112.493 96.8964C113.044 96.6055 114.031 95.204 114.637 93.8527C115.169 92.6656 116.004 89.8388 115.908 89.5532C115.872 89.4469 115.692 89.9288 115.507 90.6239ZM40.0101 89.8812C40.0197 90.111 40.0671 90.1578 40.1309 90.0006C40.1886 89.8581 40.1814 89.6879 40.1151 89.6224C40.0487 89.5569 40.0015 89.6733 40.0101 89.8812ZM37.8461 90.4566C37.8483 90.8906 37.8893 91.0448 37.937 90.7994C37.9848 90.554 37.983 90.199 37.933 90.0104C37.8831 89.8219 37.8439 90.0227 37.8461 90.4566ZM40.2092 90.47C40.178 90.9089 40.8622 92.8694 41.4436 94.0071C41.7764 94.658 42.4442 95.648 42.9279 96.2068L43.8071 97.2231L42.9791 97.0396C41.8076 96.7798 41.212 96.4305 40.2742 95.4529C38.989 94.1132 38.3404 93.1552 38.1849 92.367L38.0416 91.6401L38.0186 92.4518C38.005 92.9313 37.8347 93.4654 37.6024 93.7568C37.1785 94.2886 37.2455 94.5002 37.8371 94.5002C38.4627 94.5002 39.6336 95.192 40.9088 96.3149C42.2633 97.5075 42.474 97.6067 45.29 98.3756C47.461 98.9683 47.4305 99.175 45.1663 99.2145C44.5479 99.2253 43.6784 99.3608 43.2341 99.5155C42.7898 99.6703 41.9915 99.8526 41.46 99.9208C37.8357 100.386 39.8622 100.59 48.2278 100.604L55.3619 100.615L57.2221 100.002C59.5393 99.2378 59.888 99.0628 59.6208 98.7991C59.4047 98.5859 58.5247 98.661 56.8837 99.0328C55.5997 99.3238 53.0843 99.149 49.5883 98.5255C45.2636 97.7543 44.4312 97.4511 43.2475 96.2159C42.0936 95.0119 41.5648 94.074 40.7789 91.8374C40.4738 90.9695 40.2176 90.3542 40.2092 90.47ZM117.776 92.0642C117.75 92.912 117.618 93.2479 116.971 94.0965C115.837 95.5859 114.34 96.7725 113.254 97.0424C112.745 97.169 112.257 97.229 112.17 97.1757C112.083 97.1227 111.57 97.2442 111.031 97.4458C108.877 98.2511 102.926 99.238 100.264 99.2311C99.6003 99.2295 98.5175 99.0995 97.858 98.9423C94.9892 98.2586 94.8337 98.7717 97.5719 99.8851C99.7644 100.777 99.2063 100.742 110.2 100.664C114.302 100.635 117.146 100.54 117.146 100.432C117.146 100.331 116.629 100.194 115.997 100.126C115.364 100.059 114.083 99.8297 113.148 99.6173C112.214 99.405 110.847 99.2098 110.11 99.1835C109.374 99.1571 108.834 99.08 108.911 99.0119C109.06 98.8803 110.153 98.5285 112.483 97.8618C113.684 97.5181 114.133 97.2572 115.259 96.2502C116.602 95.0492 117.57 94.5002 118.343 94.5002C118.744 94.5002 118.745 94.487 118.4 93.9673C118.205 93.6741 117.991 92.8974 117.926 92.2413L117.806 91.0484L117.776 92.0642ZM63.689 93.696C63.5275 93.9538 63.9075 94.0298 67.1773 94.3923C73.8778 95.1354 77.1824 95.3216 79.7693 95.1018C81.1435 94.9851 82.8524 94.844 83.5669 94.7884C87.8622 94.4535 91.1622 94.0099 91.1622 93.767C91.1622 93.5822 90.9505 93.5388 90.4126 93.614C88.3383 93.9033 81.3581 94.53 79.0698 94.6322C76.126 94.7637 70.0381 94.331 64.6466 93.6067C64.1701 93.5428 63.761 93.5808 63.689 93.696ZM64.1791 94.6685C64.1791 94.9586 64.5813 95.0423 67.577 95.3746C75.5528 96.2599 77.1232 96.3153 82.0679 95.8869C89.8806 95.2097 91.2741 95.006 90.6125 94.6371C90.53 94.5912 89.788 94.6282 88.9636 94.7196C85.3092 95.1239 78.409 95.6837 77.0798 95.6837C76.2789 95.6837 74.2854 95.5524 72.6496 95.3916C71.014 95.231 68.6863 95.0052 67.4771 94.8896C66.2678 94.7742 65.031 94.6322 64.7288 94.5742C64.421 94.5152 64.1791 94.5566 64.1791 94.6685ZM50.5503 95.4239C50.6944 95.481 50.8669 95.4738 50.9333 95.4084C50.9996 95.3429 50.8817 95.2963 50.671 95.3048C50.4382 95.3143 50.3908 95.361 50.5503 95.4239ZM105.103 95.4198C105.241 95.4746 105.466 95.4746 105.603 95.4198C105.741 95.3652 105.628 95.3204 105.353 95.3204C105.078 95.3204 104.966 95.3652 105.103 95.4198ZM52.2394 95.6281C52.5433 95.6733 52.993 95.6721 53.2388 95.6253C53.4847 95.5786 53.236 95.5415 52.6864 95.5429C52.1367 95.5445 51.9356 95.5827 52.2394 95.6281ZM101.905 95.617C102.043 95.6719 102.268 95.6719 102.405 95.617C102.543 95.5624 102.43 95.5176 102.155 95.5176C101.88 95.5176 101.768 95.5624 101.905 95.617ZM103.005 95.6224C103.197 95.6721 103.512 95.6721 103.704 95.6224C103.897 95.5729 103.739 95.5322 103.355 95.5322C102.97 95.5322 102.812 95.5729 103.005 95.6224ZM64.5789 100.862C64.5789 101.187 65.3458 101.207 77.8851 101.207C90.3065 101.207 91.1872 101.184 91.126 100.871C91.065 100.559 90.1236 100.535 77.8198 100.526C65.339 100.517 64.5789 100.536 64.5789 100.862ZM47.0899 104.363C46.9412 104.6 50.2363 104.6 50.9874 104.363C51.3098 104.261 50.7292 104.198 49.3503 104.185C48.1186 104.174 47.161 104.249 47.0899 104.363ZM105.353 104.371C107.022 104.599 109.196 104.594 109.051 104.363C108.978 104.247 107.965 104.177 106.591 104.193C104.618 104.217 104.425 104.244 105.353 104.371Z" fill="#0066ff"/>
<path d="M154 79C154 120.422 120.422 154 79 154C37.5787 154 4 120.422 4 79C4 37.5787 37.5787 4 79 4C120.422 4 154 37.5787 154 79Z" stroke="#0066ff" stroke-width="7" stroke-linecap="round" stroke-linejoin="round"/>
</svg>
