<svg width="158" height="158" viewBox="0 0 158 158" fill="none" xmlns="http://www.w3.org/2000/svg">
<path d="M154 79C154 120.422 120.422 154 79 154C37.5787 154 4 120.422 4 79C4 37.5787 37.5787 4 79 4C120.422 4 154 37.5787 154 79Z" stroke="#0066ff" stroke-width="7" stroke-linecap="round" stroke-linejoin="round"/>
<path d="M94.6927 83.1857C94.4293 82.2525 93.5988 81.7007 92.4692 81.7007C91.3412 81.7007 90.5095 82.2525 90.1898 83.2187C89.9509 83.301 89.9453 83.3038 89.9453 86.1255C89.9453 88.9445 89.9509 88.9473 90.2404 89.068C90.5109 89.9985 91.3424 90.5502 92.4692 90.5502C93.5976 90.5502 94.4277 89.9984 94.7475 89.0377C94.9862 88.9471 94.9917 88.9445 94.9917 86.1253C94.9917 83.3036 94.9861 83.301 94.6927 83.1857Z" fill="#0066ff"/>
<path d="M67.2994 68.9316C67.0346 67.9983 66.2029 67.4438 65.0747 67.4438C63.9467 67.4438 63.115 67.9983 62.7964 68.9645C62.5562 69.0468 62.5508 69.0496 62.5508 71.8685C62.5508 74.6902 62.5562 74.693 62.8472 74.811C63.1162 75.7443 63.9465 76.2959 65.0745 76.2959C66.2029 76.2959 67.033 75.7441 67.3528 74.7835C67.5916 74.693 67.5972 74.6902 67.5972 71.8685C67.5974 69.0496 67.5918 69.047 67.2994 68.9316Z" fill="#0066ff"/>
<path d="M123.308 80.9459C122.83 79.6942 122.83 78.3081 123.308 77.0564L127.186 66.8729C128.101 64.4711 127.219 61.7591 125.07 60.3566L115.944 54.3976C114.823 53.6647 114.009 52.5447 113.659 51.2519L110.812 40.7308C110.14 38.2523 107.832 36.5751 105.268 36.7042L94.385 37.2476C93.0455 37.3136 91.7294 36.8855 90.6849 36.0456L82.199 29.2106C80.1994 27.5965 77.346 27.5965 75.3465 29.2106L66.8607 36.0454C65.8164 36.8853 64.5002 37.3134 63.1606 37.2474L52.2773 36.704C49.7138 36.5749 47.4052 38.2521 46.734 40.7306L43.8862 51.2517C43.5362 52.5445 42.7224 53.6645 41.6012 54.3974L32.4757 60.3564C30.3266 61.7589 29.444 64.4709 30.358 66.8727L34.238 77.0562C34.7156 78.3079 34.7156 79.694 34.238 80.9457L30.358 91.1292C29.444 93.5282 30.3264 96.2427 32.4757 97.6456L41.6012 103.605C42.7226 104.335 43.5364 105.455 43.8862 106.75L46.734 117.269C47.4052 119.75 49.7136 121.424 52.2773 121.298L63.1606 120.755C64.5002 120.686 65.8162 121.114 66.8607 121.957L75.3465 128.792C77.3462 130.403 80.1994 130.403 82.199 128.792L90.6847 121.957C91.7292 121.114 93.0455 120.686 94.3848 120.755L105.268 121.298C107.832 121.424 110.14 119.75 110.811 117.269L113.659 106.75C114.009 105.455 114.823 104.335 115.944 103.605L125.07 97.6456C127.219 96.2429 128.101 93.5282 127.186 91.1292L123.308 80.9459ZM65.0751 80.2789C61.5631 80.2789 58.8898 78.588 57.9236 75.7527C57.8287 75.4809 57.7491 75.3134 57.6833 75.1736C57.4885 74.759 57.4225 74.6189 57.4225 71.8687C57.4225 69.1239 57.4885 68.9838 57.6833 68.572C57.7491 68.4292 57.8287 68.2618 57.922 67.9901C58.8896 65.1574 61.5631 63.4667 65.0751 63.4667C68.59 63.4667 71.2637 65.1574 72.2255 67.9873C72.3215 68.2619 72.4012 68.432 72.4685 68.572C72.6648 68.9864 72.7307 69.1265 72.7307 71.8687C72.7307 74.6163 72.6648 74.7564 72.4672 75.1708C72.4012 75.3108 72.3217 75.4784 72.2269 75.7499C71.2635 78.588 68.59 80.2789 65.0751 80.2789ZM72.9652 97.9367C72.6413 98.6421 71.9317 99.0978 71.1563 99.0978H69.7494C69.0673 99.0978 68.4401 98.7547 68.0736 98.1809C67.7044 97.6072 67.6536 96.8964 67.9377 96.2732L84.5827 60.063C84.9066 59.3576 85.616 58.9047 86.393 58.9047H87.7998C88.482 58.9047 89.1077 59.2452 89.4755 59.8188C89.8446 60.3925 89.8956 61.1061 89.6113 61.7265L72.9652 97.9367ZM99.8609 89.4275C99.7936 89.5675 99.7155 89.7351 99.6207 90.004C98.6573 92.8421 95.9838 94.5358 92.4689 94.5358C88.9555 94.5358 86.282 92.8423 85.3174 90.0068C85.2225 89.7351 85.1429 89.5705 85.0771 89.4305C84.8823 89.0161 84.8163 88.876 84.8163 86.1256C84.8163 83.378 84.8823 83.2379 85.0757 82.8263C85.1429 82.6865 85.2225 82.5162 85.316 82.2444C86.2822 79.4117 88.9557 77.721 92.4691 77.721C95.984 77.721 98.6575 79.4117 99.6195 82.2444C99.7155 82.519 99.7952 82.6865 99.8609 82.8263C100.057 83.2407 100.123 83.3808 100.123 86.1256C100.123 88.873 100.057 89.0131 99.8609 89.4275Z" fill="#0066ff"/>
</svg>
