<svg width="158" height="158" viewBox="0 0 158 158" fill="none" xmlns="http://www.w3.org/2000/svg">
<path d="M95.7136 106.428H61.4279C59.6093 106.428 57.8652 107.151 56.5792 108.437C55.2932 109.723 54.5708 111.467 54.5708 113.285V120.142C54.5708 121.961 55.2932 123.705 56.5792 124.991C57.8652 126.277 59.6093 127 61.4279 127H95.7136C97.5322 127 99.2764 126.277 100.562 124.991C101.848 123.705 102.571 121.961 102.571 120.142V113.285C102.571 111.467 101.848 109.723 100.562 108.437C99.2764 107.151 97.5322 106.428 95.7136 106.428ZM95.7136 120.142H61.4279V113.285H95.7136V120.142Z" fill="#0066ff"/>
<path d="M122.137 73.1475L80.9946 32.0047C80.6764 31.6862 80.2985 31.4335 79.8826 31.2611C79.4667 31.0887 79.0209 31 78.5706 31C78.1204 31 77.6746 31.0887 77.2586 31.2611C76.8427 31.4335 76.4649 31.6862 76.1466 32.0047L35.0038 73.1475C34.5245 73.627 34.1981 74.2378 34.0658 74.9028C33.9336 75.5678 34.0015 76.257 34.2609 76.8834C34.5204 77.5098 34.9597 78.0452 35.5234 78.422C36.0871 78.7987 36.7498 78.9999 37.4278 79H54.5707V92.7143C54.5728 94.5323 55.2959 96.2752 56.5814 97.5607C57.8669 98.8462 59.6098 99.5693 61.4278 99.5714H95.7135C97.5313 99.569 99.274 98.8457 100.559 97.5603C101.845 96.2749 102.568 94.5322 102.571 92.7143V79H119.713C120.391 78.9999 121.054 78.7987 121.618 78.422C122.182 78.0452 122.621 77.5098 122.88 76.8834C123.14 76.257 123.208 75.5678 123.075 74.9028C122.943 74.2378 122.617 73.627 122.137 73.1475ZM95.7135 72.1429V92.7143H61.4278V72.1429H45.7047L78.5706 39.277L111.437 72.1429H95.7135Z" fill="#0066ff"/>
<path d="M154 79C154 120.422 120.422 154 79 154C37.5787 154 4 120.422 4 79C4 37.5787 37.5787 4 79 4C120.422 4 154 37.5787 154 79Z" stroke="#0066ff" stroke-width="7" stroke-linecap="round" stroke-linejoin="round"/>
</svg>
